<svg width="46" height="46" viewBox="0 0 46 46" fill="none" xmlns="http://www.w3.org/2000/svg">
<g clip-path="url(#clip0_506_878)">
<path d="M43.8916 17.1649C42.5971 16.5089 41.0422 16.6456 39.882 17.5176L36.3687 20.1262C35.8707 15.2322 31.7526 11.5074 26.8334 11.5012H26.6705L18.77 3.60256C17.6948 2.51986 16.2306 1.91305 14.7047 1.91781H1.91664C0.858098 1.91781 0 2.776 0 3.83454C0 4.89308 0.858098 5.75118 1.91664 5.75118H14.7046C15.2127 5.75252 15.6997 5.95431 16.0597 6.31279L21.2481 11.5012H9.58336C4.29327 11.5076 0.00637891 15.7945 0 21.0845V36.4179C0.00637891 41.7079 4.29327 45.9949 9.58336 46.0012H26.8334C31.7527 45.995 35.8707 42.2701 36.3687 37.3762L39.8763 39.9905C41.5699 41.2607 43.9727 40.9175 45.2429 39.2239C45.7405 38.5604 46.0095 37.7533 46.0095 36.9239V20.5919C46.0146 19.1392 45.1932 17.8102 43.8916 17.1649ZM32.5834 36.4178C32.5834 39.5934 30.009 42.1678 26.8334 42.1678H9.58336C6.40775 42.1678 3.83336 39.5934 3.83336 36.4178V21.0845C3.83336 17.9089 6.40775 15.3345 9.58336 15.3345H26.8334C30.009 15.3345 32.5834 17.9089 32.5834 21.0845V36.4178ZM42.1666 36.9104L36.4166 32.6248V24.8777L42.1666 20.592V36.9104Z" fill="black"/>
</g>
<defs>
<clipPath id="clip0_506_878">
<rect width="46" height="46" fill="white"/>
</clipPath>
</defs>
</svg>
