<svg width="115" height="115" viewBox="0 0 115 115" fill="none" xmlns="http://www.w3.org/2000/svg">
<g filter="url(#filter0_d_0_1)">
<circle cx="57.5" cy="57.5" r="49.5" fill="#35B7FF"/>
<circle cx="57.5" cy="57.5" r="47" stroke="white" stroke-width="5"/>
</g>
<g clip-path="url(#clip0_0_1)">
<path d="M76.5422 45.5695V35.9445H66.9172" stroke="black" stroke-width="5" stroke-linecap="round" stroke-linejoin="round"/>
<path d="M76.5417 35.9445L65.2213 47.2649C65.0227 47.4636 64.7868 47.6213 64.5272 47.7289C64.2676 47.8365 63.9894 47.8918 63.7084 47.8918C63.4274 47.8918 63.1491 47.8365 62.8895 47.7289C62.63 47.6213 62.3941 47.4636 62.1955 47.2649L57.7352 42.8046C57.5365 42.6058 57.3007 42.4482 57.0411 42.3406C56.7815 42.233 56.5033 42.1776 56.2223 42.1776C55.9413 42.1776 55.663 42.233 55.4034 42.3406C55.1438 42.4482 54.908 42.6058 54.7094 42.8046L44.4584 53.0556" stroke="black" stroke-width="5" stroke-linecap="round" stroke-linejoin="round"/>
</g>
<path d="M41.3027 82H72.6981" stroke="black" stroke-width="3" stroke-linecap="round" stroke-linejoin="round"/>
<path d="M47.6911 66.6512H43.505C43.2275 66.6512 42.9613 66.7614 42.765 66.9577C42.5688 67.154 42.4585 67.4201 42.4585 67.6977V82H48.7376V67.6977C48.7376 67.4201 48.6273 67.154 48.4311 66.9577C48.2348 66.7614 47.9686 66.6512 47.6911 66.6512Z" stroke="black" stroke-width="3" stroke-linecap="round" stroke-linejoin="round"/>
<path d="M59.0934 52H54.9074C54.6298 52 54.3636 52.1103 54.1674 52.3065C53.9711 52.5028 53.8608 52.769 53.8608 53.0465V82H60.1399V53.0465C60.1399 52.769 60.0297 52.5028 59.8334 52.3065C59.6371 52.1103 59.371 52 59.0934 52Z" stroke="black" stroke-width="3" stroke-linecap="round" stroke-linejoin="round"/>
<path d="M70.4957 58.2791H66.3097C66.0321 58.2791 65.766 58.3893 65.5697 58.5856C65.3734 58.7818 65.2632 59.048 65.2632 59.3256V82H71.5423V59.3256C71.5423 59.048 71.432 58.7818 71.2357 58.5856C71.0395 58.3893 70.7733 58.2791 70.4957 58.2791Z" stroke="black" stroke-width="3" stroke-linecap="round" stroke-linejoin="round"/>
<defs>
<filter id="filter0_d_0_1" x="0" y="0" width="115" height="115" filterUnits="userSpaceOnUse" color-interpolation-filters="sRGB">
<feFlood flood-opacity="0" result="BackgroundImageFix"/>
<feColorMatrix in="SourceAlpha" type="matrix" values="0 0 0 0 0 0 0 0 0 0 0 0 0 0 0 0 0 0 127 0" result="hardAlpha"/>
<feOffset/>
<feGaussianBlur stdDeviation="4"/>
<feComposite in2="hardAlpha" operator="out"/>
<feColorMatrix type="matrix" values="0 0 0 0 0 0 0 0 0 0 0 0 0 0 0 0 0 0 0.6 0"/>
<feBlend mode="normal" in2="BackgroundImageFix" result="effect1_dropShadow_0_1"/>
<feBlend mode="normal" in="SourceGraphic" in2="effect1_dropShadow_0_1" result="shape"/>
</filter>
<clipPath id="clip0_0_1">
<rect width="35" height="35" fill="white" transform="translate(43 27)"/>
</clipPath>
</defs>
</svg>
