<svg width="25" height="26" viewBox="0 0 25 26" fill="none" xmlns="http://www.w3.org/2000/svg">
<g clip-path="url(#clip0_231_1155)">
<path d="M12.4798 0.403198C19.627 0.403198 25 5.95259 25 12.9032C25 20.3175 19.0272 25.4032 12.4798 25.4032C5.72581 25.4032 0 19.884 0 12.9032C0 6.20461 5.27722 0.403198 12.4798 0.403198ZM12.5202 2.65622C6.5625 2.65622 2.25302 7.5907 2.25302 12.9032C2.25302 18.4375 6.8498 23.125 12.5202 23.125C17.7218 23.125 22.7419 19.0373 22.7419 12.9032C22.747 7.16731 18.1956 2.65622 12.5202 2.65622ZM17.2581 9.92941V12.0715H8.17036V9.92941H17.2581ZM17.2581 13.9516V16.0937H8.17036V13.9516H17.2581Z" fill="#0066FF"/>
</g>
<defs>
<clipPath id="clip0_231_1155">
<rect width="25" height="25.8065" fill="white"/>
</clipPath>
</defs>
</svg>
