<svg viewBox="0 0 24 24" fill="none" xmlns="http://www.w3.org/2000/svg" xmlns:anim="http://www.w3.org/2000/anim" anim="" anim:transform-origin="50% 50%" anim:duration="1" anim:ease="ease-in-out">
    <g id="fi-bs-settings" clip-path="url(#clip0_258_1458)">
        <path id="Vector" d="M11.9997 7.6377C11.1368 7.6377 10.2933 7.89358 9.57577 8.37299C8.85828 8.85241 8.29906 9.53381 7.96883 10.331C7.63861 11.1283 7.55221 12.0055 7.72055 12.8519C7.8889 13.6982 8.30444 14.4756 8.91461 15.0858C9.52479 15.696 10.3022 16.1115 11.1485 16.2799C11.9949 16.4482 12.8721 16.3618 13.6694 16.0316C14.4666 15.7014 15.148 15.1421 15.6274 14.4246C16.1068 13.7072 16.3627 12.8636 16.3627 12.0007C16.3614 10.844 15.9013 9.73499 15.0834 8.91705C14.2654 8.09912 13.1565 7.63902 11.9997 7.6377ZM11.9997 13.3637C11.7301 13.3637 11.4666 13.2838 11.2425 13.134C11.0183 12.9842 10.8436 12.7713 10.7405 12.5223C10.6373 12.2732 10.6103 11.9992 10.6629 11.7348C10.7155 11.4704 10.8453 11.2275 11.0359 11.0369C11.2266 10.8463 11.4694 10.7165 11.7338 10.6639C11.9982 10.6113 12.2723 10.6383 12.5213 10.7414C12.7704 10.8446 12.9832 11.0193 13.133 11.2435C13.2828 11.4676 13.3627 11.7311 13.3627 12.0007C13.3625 12.3621 13.2188 12.7086 12.9632 12.9642C12.7077 13.2197 12.3611 13.3634 11.9997 13.3637Z" fill="#0066FF"></path>
        <path id="Vector_2" d="M22 12C21.9969 10.7548 21.7594 9.52133 21.3 8.364L23.145 7.3L21.645 4.7L19.806 5.766C18.2366 3.80251 15.9851 2.50247 13.5 2.125V0H10.5V2.125C8.01756 2.50259 5.76834 3.80107 4.19998 5.762L2.35798 4.7L0.85798 7.3L2.69998 8.359C1.77263 10.696 1.77263 13.299 2.69998 15.636L0.85498 16.7L2.35498 19.3L4.19398 18.239C5.76417 20.2006 8.01564 21.4988 10.5 21.875V24H13.5V21.875C15.9824 21.4974 18.2316 20.1989 19.8 18.238L21.64 19.301L23.14 16.701L21.3 15.641C21.7594 14.4819 21.9969 13.2468 22 12ZM12 19C10.6155 19 9.26213 18.5895 8.11099 17.8203C6.95985 17.0511 6.06264 15.9579 5.53282 14.6788C5.00301 13.3997 4.86439 11.9922 5.13448 10.6344C5.40458 9.2765 6.07127 8.02922 7.05023 7.05025C8.0292 6.07128 9.27648 5.4046 10.6343 5.1345C11.9922 4.86441 13.3997 5.00303 14.6788 5.53284C15.9578 6.06266 17.0511 6.95986 17.8203 8.11101C18.5894 9.26215 19 10.6155 19 12C18.9976 13.8558 18.2593 15.6349 16.9471 16.9471C15.6349 18.2594 13.8558 18.9976 12 19Z" fill="#0066FF"></path>
    </g>
    <defs>
        <clipPath id="clip0_258_1458">
            <rect width="24" height="24" fill="white"></rect>
        </clipPath>
    </defs>
</svg>