<svg viewBox="0 0 25 25" fill="none" xmlns="http://www.w3.org/2000/svg" xmlns:anim="http://www.w3.org/2000/anim" anim="" anim:transform-origin="50% 50%" anim:duration="1" anim:ease="ease-in-out">
    <g id="Line Rounded/Report">
        <g id="Report">
            <path id="Line" d="M22.5694 21.1522C22.5694 21.5206 22.4231 21.8738 22.1626 22.1343C21.9022 22.3948 21.5489 22.5411 21.1806 22.5411H4.51389C4.14553 22.5411 3.79226 22.3948 3.5318 22.1343C3.27133 21.8738 3.125 21.5206 3.125 21.1522V3.09665C3.125 2.7283 3.27133 2.37503 3.5318 2.11456C3.79226 1.85409 4.14553 1.70776 4.51389 1.70776H18.4028C18.7644 1.70828 19.1115 1.84979 19.3704 2.10221L22.1481 4.77165C22.2808 4.90093 22.3862 5.05542 22.4582 5.22604C22.5303 5.39666 22.5674 5.57997 22.5676 5.76517L22.5694 21.1522Z" stroke="#0066FF" stroke-width="2" stroke-linecap="round" stroke-linejoin="round"></path>
            <path id="Line_2" d="M7.29175 7.95776V18.3744H18.4029" stroke="#0066FF" stroke-width="2" stroke-linecap="round" stroke-linejoin="round"></path>
            <path id="Line_3" d="M7.29175 15.5967L10.4047 12.6912C10.7406 12.3859 11.1782 12.2168 11.632 12.2168C12.0859 12.2168 12.5234 12.3859 12.8593 12.6912L13.5316 13.3189C13.7241 13.4952 13.9524 13.6278 14.2009 13.7077C14.4494 13.7876 14.7122 13.8129 14.9714 13.7819C15.2281 13.7551 15.4758 13.6718 15.6966 13.538C15.9173 13.4041 16.1057 13.2231 16.2482 13.0078L17.7038 10.7356" stroke="#0066FF" stroke-width="2" stroke-linecap="round" stroke-linejoin="round"></path>
        </g>
    </g>
</svg>