<svg viewBox="0 0 28 28" fill="none" xmlns="http://www.w3.org/2000/svg" xmlns:anim="http://www.w3.org/2000/anim" anim="" anim:transform-origin="50% 50%" anim:duration="1" anim:ease="ease-in-out">
    <g id="fi-rr-room-service" clip-path="url(#clip0_258_1453)">
        <path id="Vector" d="M26.8333 22.1662V19.8329C26.8291 16.6331 25.6307 13.5501 23.4729 11.1874C21.315 8.82476 18.353 7.35256 15.1667 7.05903V5.5097C15.6115 5.25288 15.9592 4.85645 16.1557 4.3819C16.3523 3.90735 16.3868 3.38121 16.2538 2.88506C16.1209 2.38892 15.8279 1.9505 15.4204 1.63782C15.0129 1.32513 14.5136 1.15564 14 1.15564C13.4864 1.15564 12.9871 1.32513 12.5796 1.63782C12.1721 1.9505 11.8791 2.38892 11.7462 2.88506C11.6132 3.38121 11.6477 3.90735 11.8443 4.3819C12.0408 4.85645 12.3885 5.25288 12.8333 5.5097V7.05903C9.64704 7.35256 6.68502 8.82476 4.52714 11.1874C2.36926 13.5501 1.1709 16.6331 1.16667 19.8329V22.1662C0.857247 22.1662 0.560501 22.2891 0.341709 22.5079C0.122916 22.7267 0 23.0234 0 23.3329C0 23.6423 0.122916 23.939 0.341709 24.1578C0.560501 24.3766 0.857247 24.4995 1.16667 24.4995H26.8333C27.1428 24.4995 27.4395 24.3766 27.6583 24.1578C27.8771 23.939 28 23.6423 28 23.3329C28 23.0234 27.8771 22.7267 27.6583 22.5079C27.4395 22.2891 27.1428 22.1662 26.8333 22.1662ZM3.5 19.8329C4.05183 5.90986 23.9528 5.92036 24.5 19.8329V22.1662H3.5V19.8329Z" fill="#0066FF"></path>
    </g>
    <defs>
        <clipPath id="clip0_258_1453">
            <rect width="28" height="28" fill="white"></rect>
        </clipPath>
    </defs>
</svg>