<svg width="115" height="115" viewBox="0 0 115 115" fill="none" xmlns="http://www.w3.org/2000/svg">
<g filter="url(#filter0_d_0_1)">
<circle cx="57.5" cy="57.5" r="49.5" fill="#35B7FF"/>
<circle cx="57.5" cy="57.5" r="47" stroke="white" stroke-width="5"/>
</g>
<g clip-path="url(#clip0_0_1)">
<path d="M72.3125 40.7958C72.082 39.8052 71.6523 38.8718 71.0498 38.0524C70.4472 37.233 69.6842 36.5447 68.8073 36.0294C67.9303 35.5141 66.9578 35.1826 65.9487 35.055C64.9396 34.9274 63.9151 35.0063 62.9375 35.2871L59.705 36.2115C58.8861 36.4468 58.1319 36.8663 57.5 37.4377C56.8681 36.8663 56.1139 36.4468 55.295 36.2115L52.0625 35.2871C51.0855 35.0078 50.0619 34.93 49.0539 35.0583C48.0459 35.1866 47.0745 35.5184 46.1987 36.0336C45.3228 36.5488 44.5608 37.2366 43.9588 38.0552C43.3569 38.8738 42.9275 39.8062 42.6969 40.7958C40.5402 41.1882 38.5893 42.3239 37.1831 44.0055C35.777 45.687 35.0045 47.8082 35 50.0002V63.1252C35.003 65.6107 35.9917 67.9936 37.7492 69.7511C39.5067 71.5086 41.8895 72.4972 44.375 72.5002H55.625V76.2502H50C49.5027 76.2502 49.0258 76.4478 48.6742 76.7994C48.3225 77.151 48.125 77.6279 48.125 78.1252C48.125 78.6225 48.3225 79.0994 48.6742 79.4511C49.0258 79.8027 49.5027 80.0002 50 80.0002H65C65.4973 80.0002 65.9742 79.8027 66.3258 79.4511C66.6775 79.0994 66.875 78.6225 66.875 78.1252C66.875 77.6279 66.6775 77.151 66.3258 76.7994C65.9742 76.4478 65.4973 76.2502 65 76.2502H59.375V72.5002H70.625C73.1105 72.4972 75.4933 71.5086 77.2508 69.7511C79.0083 67.9936 79.997 65.6107 80 63.1252V50.0002C79.9959 47.8095 79.2248 45.6895 77.8205 44.0081C76.4162 42.3267 74.4674 41.1902 72.3125 40.7958ZM59.375 41.6208C59.3752 41.2136 59.5079 40.8175 59.7532 40.4924C59.9984 40.1674 60.3429 39.931 60.7344 39.819L63.9688 38.8946C64.5269 38.7349 65.1145 38.7071 65.6853 38.8132C66.256 38.9192 66.7944 39.1564 67.2579 39.5059C67.7214 39.8555 68.0974 40.3079 68.3564 40.8275C68.6153 41.3471 68.75 41.9197 68.75 42.5002V49.884C68.7474 50.6976 68.481 51.4885 67.9908 52.1379C67.5006 52.7874 66.813 53.2603 66.0312 53.4858L59.375 55.3871V41.6208ZM47.75 39.5002C48.2126 39.1519 48.7498 38.916 49.3193 38.8108C49.8887 38.7057 50.4748 38.7344 51.0312 38.8946L54.2656 39.819C54.6571 39.931 55.0016 40.1674 55.2468 40.4924C55.4921 40.8175 55.6248 41.2136 55.625 41.6208V55.3871L48.9688 53.4858C48.187 53.2603 47.4994 52.7874 47.0092 52.1379C46.519 51.4885 46.2526 50.6976 46.25 49.884V42.5002C46.2481 41.9177 46.3828 41.3429 46.6433 40.8219C46.9038 40.3009 47.2829 39.8482 47.75 39.5002ZM76.25 63.1252C76.25 64.6171 75.6574 66.0478 74.6025 67.1027C73.5476 68.1576 72.1168 68.7502 70.625 68.7502H44.375C42.8832 68.7502 41.4524 68.1576 40.3975 67.1027C39.3426 66.0478 38.75 64.6171 38.75 63.1252V50.0002C38.7548 48.841 39.1177 47.7115 39.7889 46.7664C40.4602 45.8213 41.407 45.1066 42.5 44.7202V49.884C42.5046 51.5121 43.037 53.0949 44.0174 54.3947C44.9978 55.6946 46.3733 56.6415 47.9375 57.0933L54.4081 58.944C56.4303 59.5204 58.5734 59.5204 60.5956 58.944L67.0662 57.0933C68.6297 56.6408 70.0044 55.6936 70.9841 54.3938C71.9637 53.094 72.4956 51.5116 72.5 49.884V44.7202C73.593 45.1066 74.5398 45.8213 75.2111 46.7664C75.8823 47.7115 76.2452 48.841 76.25 50.0002V63.1252Z" fill="black"/>
</g>
<defs>
<filter id="filter0_d_0_1" x="0" y="0" width="115" height="115" filterUnits="userSpaceOnUse" color-interpolation-filters="sRGB">
<feFlood flood-opacity="0" result="BackgroundImageFix"/>
<feColorMatrix in="SourceAlpha" type="matrix" values="0 0 0 0 0 0 0 0 0 0 0 0 0 0 0 0 0 0 127 0" result="hardAlpha"/>
<feOffset/>
<feGaussianBlur stdDeviation="4"/>
<feComposite in2="hardAlpha" operator="out"/>
<feColorMatrix type="matrix" values="0 0 0 0 0 0 0 0 0 0 0 0 0 0 0 0 0 0 0.6 0"/>
<feBlend mode="normal" in2="BackgroundImageFix" result="effect1_dropShadow_0_1"/>
<feBlend mode="normal" in="SourceGraphic" in2="effect1_dropShadow_0_1" result="shape"/>
</filter>
<clipPath id="clip0_0_1">
<rect width="45" height="45" fill="white" transform="translate(35 35)"/>
</clipPath>
</defs>
</svg>
