<svg xmlns="http://www.w3.org/2000/svg" width="45" height="45" viewBox="0 0 45 45" fill="blck" >
<path d="M37.3125 5.79585C37.082 4.8052 36.6523 3.87179 36.0498 3.05239C35.4472 2.23299 34.6842 1.54471 33.8073 1.02943C32.9303 0.514141 31.9578 0.182609 30.9487 0.0549945C29.9396 -0.0726204 28.9151 0.00634794 27.9375 0.287097L24.705 1.21147C23.8861 1.44682 23.1319 1.86626 22.5 2.43772C21.8681 1.86626 21.1139 1.44682 20.295 1.21147L17.0625 0.287097C16.0855 0.0078112 15.0619 -0.0700314 14.0539 0.0582944C13.0459 0.18662 12.0745 0.518438 11.1987 1.03361C10.3228 1.54878 9.56079 2.23655 8.95883 3.05518C8.35686 3.87382 7.92752 4.80624 7.69688 5.79585C5.54025 6.18822 3.58929 7.32389 2.18312 9.00547C0.776957 10.687 0.00449247 12.8082 0 15.0002L0 28.1252C0.00297723 30.6107 0.991654 32.9936 2.74916 34.7511C4.50667 36.5086 6.88951 37.4972 9.375 37.5002H20.625V41.2502H15C14.5027 41.2502 14.0258 41.4478 13.6742 41.7994C13.3225 42.151 13.125 42.6279 13.125 43.1252C13.125 43.6225 13.3225 44.0994 13.6742 44.4511C14.0258 44.8027 14.5027 45.0002 15 45.0002H30C30.4973 45.0002 30.9742 44.8027 31.3258 44.4511C31.6775 44.0994 31.875 43.6225 31.875 43.1252C31.875 42.6279 31.6775 42.151 31.3258 41.7994C30.9742 41.4478 30.4973 41.2502 30 41.2502H24.375V37.5002H35.625C38.1105 37.4972 40.4933 36.5086 42.2508 34.7511C44.0083 32.9936 44.997 30.6107 45 28.1252V15.0002C44.9959 12.8095 44.2248 10.6895 42.8205 9.00807C41.4162 7.32668 39.4674 6.19017 37.3125 5.79585ZM24.375 6.62085C24.3752 6.21363 24.5079 5.81753 24.7532 5.49245C24.9984 5.16736 25.3429 4.93096 25.7344 4.81897L28.9688 3.8946C29.5269 3.73495 30.1145 3.70707 30.6853 3.81316C31.256 3.91924 31.7944 4.1564 32.2579 4.50594C32.7214 4.85548 33.0974 5.30787 33.3564 5.82747C33.6153 6.34707 33.75 6.91968 33.75 7.50022V14.884C33.7474 15.6976 33.481 16.4885 32.9908 17.1379C32.5006 17.7874 31.813 18.2603 31.0312 18.4858L24.375 20.3871V6.62085ZM12.75 4.50022C13.2126 4.15195 13.7498 3.91595 14.3193 3.81085C14.8887 3.70575 15.4748 3.73442 16.0312 3.8946L19.2656 4.81897C19.6571 4.93096 20.0016 5.16736 20.2468 5.49245C20.4921 5.81753 20.6248 6.21363 20.625 6.62085V20.3871L13.9688 18.4858C13.187 18.2603 12.4994 17.7874 12.0092 17.1379C11.519 16.4885 11.2526 15.6976 11.25 14.884V7.50022C11.2481 6.91772 11.3828 6.34288 11.6433 5.82187C11.9038 5.30087 12.2829 4.8482 12.75 4.50022ZM41.25 28.1252C41.25 29.6171 40.6574 31.0478 39.6025 32.1027C38.5476 33.1576 37.1168 33.7502 35.625 33.7502H9.375C7.88316 33.7502 6.45242 33.1576 5.39752 32.1027C4.34263 31.0478 3.75 29.6171 3.75 28.1252V15.0002C3.75481 13.841 4.11766 12.7115 4.78891 11.7664C5.46017 10.8213 6.40705 10.1066 7.5 9.72022V14.884C7.50459 16.5121 8.03703 18.0949 9.01743 19.3947C9.99783 20.6946 11.3733 21.6415 12.9375 22.0933L19.4081 23.944C21.4303 24.5204 23.5734 24.5204 25.5956 23.944L32.0662 22.0933C33.6297 21.6408 35.0044 20.6936 35.9841 19.3938C36.9637 18.094 37.4956 16.5116 37.5 14.884V9.72022C38.593 10.1066 39.5398 10.8213 40.2111 11.7664C40.8823 12.7115 41.2452 13.841 41.25 15.0002V28.1252Z"/>
</svg>
