<svg viewBox="0 0 30 30" fill="none" xmlns="http://www.w3.org/2000/svg" xmlns:anim="http://www.w3.org/2000/anim" anim="" anim:transform-origin="50% 50%" anim:duration="1" anim:ease="ease-in-out">
    <g id="fi-rr-video-camera" clip-path="url(#clip0_227_1043)">
        <path id="Vector" d="M28.625 11.1945C27.7807 10.7667 26.7666 10.8559 26.01 11.4245L23.7188 13.1258C23.3939 9.93407 20.7082 7.50483 17.5 7.50079H17.3938L12.2413 2.34952C11.5401 1.6434 10.5852 1.24766 9.59004 1.25077H1.24998C0.559629 1.25077 0 1.81045 0 2.5008C0 3.19116 0.559629 3.75079 1.24998 3.75079H9.58998C9.92133 3.75166 10.2389 3.88327 10.4738 4.11705L13.8575 7.50079H6.25002C2.79996 7.50495 0.00416016 10.3007 0 13.7508V23.7508C0.00416016 27.2008 2.79996 29.9967 6.25002 30.0008H17.5C20.7083 29.9967 23.3939 27.5675 23.7188 24.3758L26.0063 26.0808C27.1108 26.9092 28.6778 26.6854 29.5062 25.5808C29.8308 25.1481 30.0062 24.6218 30.0062 24.0808V13.4295C30.0095 12.4821 29.4738 11.6154 28.625 11.1945ZM21.25 23.7508C21.25 25.8218 19.5711 27.5008 17.5 27.5008H6.25002C4.17897 27.5008 2.50002 25.8218 2.50002 23.7508V13.7508C2.50002 11.6798 4.17897 10.0008 6.25002 10.0008H17.5C19.5711 10.0008 21.25 11.6798 21.25 13.7508V23.7508ZM27.5 24.072L23.75 21.2771V16.2246L27.5 13.4296V24.072Z" fill="#0066FF"></path>
    </g>
    <defs>
        <clipPath id="clip0_227_1043">
            <rect width="30" height="30" fill="white"></rect>
        </clipPath>
    </defs>
</svg>